<mxfile host="app.diagrams.net" agent="Mozilla/5.0 (Windows NT 10.0; Win64; x64) AppleWebKit/537.36 (KHTML, like Gecko) Chrome/131.0.0.0 Safari/537.36 Edg/131.0.0.0" version="25.0.3">
  <diagram id="C5RBs43oDa-KdzZeNtuy" name="Page-1">
    <mxGraphModel dx="1042" dy="565" grid="1" gridSize="10" guides="1" tooltips="1" connect="1" arrows="1" fold="1" page="1" pageScale="1" pageWidth="827" pageHeight="1169" math="0" shadow="0">
      <root>
        <mxCell id="WIyWlLk6GJQsqaUBKTNV-0" />
        <mxCell id="WIyWlLk6GJQsqaUBKTNV-1" parent="WIyWlLk6GJQsqaUBKTNV-0" />
        <mxCell id="TqNhPEym1Da6x6jAqGXv-3" style="edgeStyle=orthogonalEdgeStyle;rounded=0;orthogonalLoop=1;jettySize=auto;html=1;entryX=0.5;entryY=0;entryDx=0;entryDy=0;" edge="1" parent="WIyWlLk6GJQsqaUBKTNV-1" source="TqNhPEym1Da6x6jAqGXv-0" target="TqNhPEym1Da6x6jAqGXv-1">
          <mxGeometry relative="1" as="geometry" />
        </mxCell>
        <mxCell id="TqNhPEym1Da6x6jAqGXv-0" value="START" style="ellipse;whiteSpace=wrap;html=1;" vertex="1" parent="WIyWlLk6GJQsqaUBKTNV-1">
          <mxGeometry x="354" y="20" width="120" height="80" as="geometry" />
        </mxCell>
        <mxCell id="TqNhPEym1Da6x6jAqGXv-4" style="edgeStyle=orthogonalEdgeStyle;rounded=0;orthogonalLoop=1;jettySize=auto;html=1;entryX=0.5;entryY=0;entryDx=0;entryDy=0;" edge="1" parent="WIyWlLk6GJQsqaUBKTNV-1" source="TqNhPEym1Da6x6jAqGXv-1" target="TqNhPEym1Da6x6jAqGXv-2">
          <mxGeometry relative="1" as="geometry" />
        </mxCell>
        <mxCell id="TqNhPEym1Da6x6jAqGXv-1" value="Nhập số n" style="shape=parallelogram;perimeter=parallelogramPerimeter;whiteSpace=wrap;html=1;fixedSize=1;" vertex="1" parent="WIyWlLk6GJQsqaUBKTNV-1">
          <mxGeometry x="354" y="140" width="120" height="60" as="geometry" />
        </mxCell>
        <mxCell id="TqNhPEym1Da6x6jAqGXv-6" style="edgeStyle=orthogonalEdgeStyle;rounded=0;orthogonalLoop=1;jettySize=auto;html=1;entryX=0.5;entryY=0;entryDx=0;entryDy=0;" edge="1" parent="WIyWlLk6GJQsqaUBKTNV-1" source="TqNhPEym1Da6x6jAqGXv-2" target="TqNhPEym1Da6x6jAqGXv-5">
          <mxGeometry relative="1" as="geometry" />
        </mxCell>
        <mxCell id="TqNhPEym1Da6x6jAqGXv-2" value="For int i" style="rounded=0;whiteSpace=wrap;html=1;" vertex="1" parent="WIyWlLk6GJQsqaUBKTNV-1">
          <mxGeometry x="354" y="250" width="120" height="60" as="geometry" />
        </mxCell>
        <mxCell id="TqNhPEym1Da6x6jAqGXv-8" value="TRUE" style="edgeStyle=orthogonalEdgeStyle;rounded=0;orthogonalLoop=1;jettySize=auto;html=1;" edge="1" parent="WIyWlLk6GJQsqaUBKTNV-1" source="TqNhPEym1Da6x6jAqGXv-5">
          <mxGeometry relative="1" as="geometry">
            <mxPoint x="320" y="470" as="targetPoint" />
          </mxGeometry>
        </mxCell>
        <mxCell id="TqNhPEym1Da6x6jAqGXv-10" value="FALSE" style="edgeStyle=orthogonalEdgeStyle;rounded=0;orthogonalLoop=1;jettySize=auto;html=1;entryX=0;entryY=0.5;entryDx=0;entryDy=0;" edge="1" parent="WIyWlLk6GJQsqaUBKTNV-1" source="TqNhPEym1Da6x6jAqGXv-5" target="TqNhPEym1Da6x6jAqGXv-11">
          <mxGeometry relative="1" as="geometry">
            <mxPoint x="530" y="470" as="targetPoint" />
          </mxGeometry>
        </mxCell>
        <mxCell id="TqNhPEym1Da6x6jAqGXv-5" value="i &amp;lt;= n" style="rhombus;whiteSpace=wrap;html=1;" vertex="1" parent="WIyWlLk6GJQsqaUBKTNV-1">
          <mxGeometry x="351" y="350" width="126" height="80" as="geometry" />
        </mxCell>
        <mxCell id="TqNhPEym1Da6x6jAqGXv-13" style="edgeStyle=orthogonalEdgeStyle;rounded=0;orthogonalLoop=1;jettySize=auto;html=1;entryX=0.5;entryY=0;entryDx=0;entryDy=0;" edge="1" parent="WIyWlLk6GJQsqaUBKTNV-1" target="TqNhPEym1Da6x6jAqGXv-12">
          <mxGeometry relative="1" as="geometry">
            <mxPoint x="320" y="530" as="sourcePoint" />
          </mxGeometry>
        </mxCell>
        <mxCell id="TqNhPEym1Da6x6jAqGXv-14" value="TRUE" style="edgeStyle=orthogonalEdgeStyle;rounded=0;orthogonalLoop=1;jettySize=auto;html=1;" edge="1" parent="WIyWlLk6GJQsqaUBKTNV-1" target="TqNhPEym1Da6x6jAqGXv-12">
          <mxGeometry relative="1" as="geometry">
            <mxPoint x="320" y="530" as="sourcePoint" />
          </mxGeometry>
        </mxCell>
        <mxCell id="TqNhPEym1Da6x6jAqGXv-16" value="FALSE" style="edgeStyle=orthogonalEdgeStyle;rounded=0;orthogonalLoop=1;jettySize=auto;html=1;exitX=1;exitY=1;exitDx=0;exitDy=0;" edge="1" parent="WIyWlLk6GJQsqaUBKTNV-1" source="TqNhPEym1Da6x6jAqGXv-22" target="TqNhPEym1Da6x6jAqGXv-15">
          <mxGeometry relative="1" as="geometry">
            <mxPoint x="320" y="530" as="sourcePoint" />
            <Array as="points">
              <mxPoint x="417" y="530" />
            </Array>
          </mxGeometry>
        </mxCell>
        <mxCell id="TqNhPEym1Da6x6jAqGXv-21" style="edgeStyle=orthogonalEdgeStyle;rounded=0;orthogonalLoop=1;jettySize=auto;html=1;entryX=0.5;entryY=0;entryDx=0;entryDy=0;" edge="1" parent="WIyWlLk6GJQsqaUBKTNV-1" source="TqNhPEym1Da6x6jAqGXv-11" target="TqNhPEym1Da6x6jAqGXv-20">
          <mxGeometry relative="1" as="geometry" />
        </mxCell>
        <mxCell id="TqNhPEym1Da6x6jAqGXv-11" value="END vòng lặp" style="ellipse;whiteSpace=wrap;html=1;" vertex="1" parent="WIyWlLk6GJQsqaUBKTNV-1">
          <mxGeometry x="600" y="350" width="120" height="80" as="geometry" />
        </mxCell>
        <mxCell id="TqNhPEym1Da6x6jAqGXv-19" style="edgeStyle=orthogonalEdgeStyle;rounded=0;orthogonalLoop=1;jettySize=auto;html=1;" edge="1" parent="WIyWlLk6GJQsqaUBKTNV-1" source="TqNhPEym1Da6x6jAqGXv-12">
          <mxGeometry relative="1" as="geometry">
            <mxPoint x="420" y="650" as="targetPoint" />
            <Array as="points">
              <mxPoint x="210" y="710" />
              <mxPoint x="421" y="710" />
            </Array>
          </mxGeometry>
        </mxCell>
        <mxCell id="TqNhPEym1Da6x6jAqGXv-12" value="print i" style="rounded=0;whiteSpace=wrap;html=1;" vertex="1" parent="WIyWlLk6GJQsqaUBKTNV-1">
          <mxGeometry x="150" y="585" width="120" height="60" as="geometry" />
        </mxCell>
        <mxCell id="TqNhPEym1Da6x6jAqGXv-18" style="edgeStyle=orthogonalEdgeStyle;rounded=0;orthogonalLoop=1;jettySize=auto;html=1;entryX=1;entryY=1;entryDx=0;entryDy=0;" edge="1" parent="WIyWlLk6GJQsqaUBKTNV-1" source="TqNhPEym1Da6x6jAqGXv-15" target="TqNhPEym1Da6x6jAqGXv-5">
          <mxGeometry relative="1" as="geometry">
            <Array as="points">
              <mxPoint x="530" y="615" />
              <mxPoint x="530" y="500" />
              <mxPoint x="446" y="500" />
            </Array>
          </mxGeometry>
        </mxCell>
        <mxCell id="TqNhPEym1Da6x6jAqGXv-15" value="i++" style="whiteSpace=wrap;html=1;rounded=0;" vertex="1" parent="WIyWlLk6GJQsqaUBKTNV-1">
          <mxGeometry x="357" y="585" width="120" height="60" as="geometry" />
        </mxCell>
        <mxCell id="TqNhPEym1Da6x6jAqGXv-20" value="END" style="ellipse;whiteSpace=wrap;html=1;" vertex="1" parent="WIyWlLk6GJQsqaUBKTNV-1">
          <mxGeometry x="600" y="490" width="120" height="80" as="geometry" />
        </mxCell>
        <mxCell id="TqNhPEym1Da6x6jAqGXv-22" value="n % i == 0" style="rhombus;whiteSpace=wrap;html=1;" vertex="1" parent="WIyWlLk6GJQsqaUBKTNV-1">
          <mxGeometry x="280" y="470" width="80" height="80" as="geometry" />
        </mxCell>
      </root>
    </mxGraphModel>
  </diagram>
</mxfile>
